<?xml version="1.0" encoding="UTF-8"?>
<svg id="Layer_1" xmlns="http://www.w3.org/2000/svg" version="1.1" xmlns:xlink="http://www.w3.org/1999/xlink" viewBox="0 0 24 24">
  <!-- Generator: Adobe Illustrator 29.3.0, SVG Export Plug-In . SVG Version: 2.1.0 Build 146)  -->
  <defs>
    <style>
      .st0 {
        fill: url(#linear-gradient2);
      }

      .st1 {
        clip-path: url(#clippath-6);
      }

      .st2 {
        clip-path: url(#clippath-7);
      }

      .st3 {
        fill: #ceeffc;
      }

      .st4 {
        clip-path: url(#clippath-4);
      }

      .st5 {
        fill: #a7dbef;
      }

      .st6 {
        fill: url(#linear-gradient1);
      }

      .st7 {
        fill: none;
      }

      .st8 {
        clip-path: url(#clippath-1);
      }

      .st9 {
        clip-path: url(#clippath-5);
      }

      .st10 {
        clip-path: url(#clippath-3);
      }

      .st11 {
        fill: url(#linear-gradient3);
      }

      .st12 {
        clip-path: url(#clippath-2);
      }

      .st13 {
        fill: url(#linear-gradient);
      }

      .st14 {
        clip-path: url(#clippath);
      }
    </style>
    <clipPath id="clippath">
      <rect class="st7" x="12.5" y="12.5" width="5.3" height="5.3" rx="1.2" ry="1.2"/>
    </clipPath>
    <clipPath id="clippath-1">
      <rect class="st7" x="6.1" y="12.5" width="5.3" height="5.3" rx="1.2" ry="1.2"/>
    </clipPath>
    <clipPath id="clippath-2">
      <rect class="st7" x="12.5" y="6.1" width="5.3" height="5.3" rx="1.2" ry="1.2"/>
    </clipPath>
    <clipPath id="clippath-3">
      <rect class="st7" x="6.1" y="6.1" width="5.3" height="5.3" rx="1.2" ry="1.2"/>
    </clipPath>
    <clipPath id="clippath-4">
      <rect class="st7" x="12.6" y="12.6" width="5.3" height="5.3" rx="1.2" ry="1.2"/>
    </clipPath>
    <linearGradient id="linear-gradient" x1="17.9" y1="8" x2="5.9" y2="20.2" gradientTransform="translate(0 26) scale(1 -1)" gradientUnits="userSpaceOnUse">
      <stop offset="0" stop-color="#0ba7f2"/>
      <stop offset=".9" stop-color="#15cdfc"/>
    </linearGradient>
    <clipPath id="clippath-5">
      <rect class="st7" x="6.2" y="12.6" width="5.3" height="5.3" rx="1.2" ry="1.2"/>
    </clipPath>
    <linearGradient id="linear-gradient1" x1="17.9" y1="8" x2="5.9" y2="20.2" gradientTransform="translate(0 26) scale(1 -1)" gradientUnits="userSpaceOnUse">
      <stop offset="0" stop-color="#0ba7f2"/>
      <stop offset=".9" stop-color="#15cdfc"/>
    </linearGradient>
    <clipPath id="clippath-6">
      <rect class="st7" x="12.6" y="6.1" width="5.3" height="5.3" rx="1.2" ry="1.2"/>
    </clipPath>
    <linearGradient id="linear-gradient2" x1="17.9" y1="8" x2="5.9" y2="20.2" gradientTransform="translate(0 26) scale(1 -1)" gradientUnits="userSpaceOnUse">
      <stop offset="0" stop-color="#0ba7f2"/>
      <stop offset=".9" stop-color="#15cdfc"/>
    </linearGradient>
    <clipPath id="clippath-7">
      <rect class="st7" x="6.2" y="6.1" width="5.3" height="5.3" rx="1.2" ry="1.2"/>
    </clipPath>
    <linearGradient id="linear-gradient3" x1="17.9" y1="8" x2="5.9" y2="20.2" gradientTransform="translate(0 26) scale(1 -1)" gradientUnits="userSpaceOnUse">
      <stop offset="0" stop-color="#0ba7f2"/>
      <stop offset=".9" stop-color="#15cdfc"/>
    </linearGradient>
  </defs>
  <g id="Layer_2">
    <g id="Layer_3">
      <g>
        <rect class="st5" x="12.5" y="12.5" width="5.3" height="5.3" rx="1.2" ry="1.2"/>
        <g class="st14">
          <rect class="st5" x="5.1" y="5.3" width="13.7" height="13.4"/>
        </g>
      </g>
      <g>
        <rect class="st5" x="6.1" y="12.5" width="5.3" height="5.3" rx="1.2" ry="1.2"/>
        <g class="st8">
          <rect class="st5" x="5.1" y="5.3" width="13.7" height="13.4"/>
        </g>
      </g>
      <g>
        <rect class="st5" x="12.5" y="6.1" width="5.3" height="5.3" rx="1.2" ry="1.2"/>
        <g class="st12">
          <rect class="st5" x="5.1" y="5.3" width="13.7" height="13.4"/>
        </g>
      </g>
      <g>
        <rect class="st5" x="6.1" y="6.1" width="5.3" height="5.3" rx="1.2" ry="1.2"/>
        <g class="st10">
          <rect class="st5" x="5.1" y="5.3" width="13.7" height="13.4"/>
        </g>
      </g>
    </g>
    <g id="Layer_4">
      <rect class="st3" x="2" y="2" width="20" height="20" rx="2.8" ry="2.8"/>
      <g class="st4">
        <rect class="st13" x="5.2" y="5.3" width="13.7" height="13.4"/>
      </g>
      <g class="st9">
        <rect class="st6" x="5.2" y="5.3" width="13.7" height="13.4"/>
      </g>
      <g class="st1">
        <rect class="st0" x="5.2" y="5.3" width="13.7" height="13.4"/>
      </g>
      <g class="st2">
        <rect class="st11" x="5.2" y="5.3" width="13.7" height="13.4"/>
      </g>
    </g>
  </g>
</svg>