<?xml version="1.0" encoding="UTF-8"?>
<svg id="Layer_1" data-name="Layer 1" xmlns="http://www.w3.org/2000/svg" xmlns:xlink="http://www.w3.org/1999/xlink" viewBox="0 0 24 24">
  <defs>
    <style>
      .cls-1 {
        fill: #fff;
      }

      .cls-2 {
        fill: #6a65f6;
      }

      .cls-3 {
        fill: url(#linear-gradient);
      }
    </style>
    <linearGradient id="linear-gradient" x1="23.48" y1="21.96" x2="4.88" y2="5.65" gradientUnits="userSpaceOnUse">
      <stop offset=".01" stop-color="#625af1"/>
      <stop offset=".92" stop-color="#7574fa"/>
    </linearGradient>
  </defs>
  <rect class="cls-2" x="2.07" y="2.08" width="19.62" height="19.88" rx="3.04" ry="3.04"/>
  <rect class="cls-3" x="2.32" y="2.06" width="19.62" height="19.88" rx="3.04" ry="3.04"/>
  <path class="cls-1" d="M18.04,13.59c-.17-1.44-.27-2.31-.65-3.48-.18-.56-.27-.83-.41-1.05-.14-.23-.94-1.48-2.35-1.54-.76-.03-1.34.3-1.62.49h-2.34c-.28-.19-.86-.52-1.62-.49-1.41.06-2.21,1.31-2.35,1.54-.13.22-.22.5-.41,1.05-.38,1.17-.48,2.04-.65,3.48-.01.13-.04.32-.03.57.01.31.03.85.32,1.35.06.11.51.83,1.35.97,1.15.19,2-.92,2.09-1.07.06-.09.14-.21.14-.21.2-.31.19-.31.24-.39.18-.24.33-.35.38-.39.05-.04.1-.06.13-.08.51,0,2.61,0,3.12,0,.03.02.08.04.13.08.05.03.21.15.38.39.06.08.04.07.24.39,0,0,.08.12.14.21.1.15.95,1.26,2.1,1.07.84-.14,1.29-.87,1.35-.97.3-.5.31-1.04.32-1.35,0-.25-.01-.44-.03-.57ZM10.83,11.16c0,.25-.21.46-.46.46h-.67v.67c0,.26-.21.46-.46.46-.13,0-.24-.05-.33-.14s-.14-.2-.14-.33v-.67h-.68c-.25,0-.46-.21-.46-.46h0c0-.26.21-.46.46-.46h.68v-.67c0-.26.21-.46.46-.46.13,0,.24.05.33.14.08.08.14.2.14.33v.67h.67c.25,0,.46.21.46.46h0ZM14.39,9.48c.31,0,.57.25.57.57s-.25.57-.57.57-.57-.25-.57-.57.25-.57.57-.57ZM13.3,11.72c-.31,0-.57-.25-.57-.57s.25-.57.57-.57.57.25.57.57-.25.57-.57.57ZM14.39,12.83c-.31,0-.57-.25-.57-.57s.25-.57.57-.57.57.25.57.57-.25.57-.57.57ZM15.52,11.72c-.31,0-.57-.25-.57-.57s.25-.57.57-.57.57.25.57.57-.25.57-.57.57Z"/>
</svg>